<svg xmlns="http://www.w3.org/2000/svg" version="1.1" xmlns:xlink="http://www.w3.org/1999/xlink" xmlns:svgjs="http://svgjs.dev/svgjs" width="1500" height="1113" viewBox="0 0 1500 1113"><g transform="matrix(1,0,0,1,-1.072824060815151,-1.7951610258292021)"><svg viewBox="0 0 334 248" data-background-color="#444444" preserveAspectRatio="xMidYMid meet" height="1113" width="1500" xmlns="http://www.w3.org/2000/svg" xmlns:xlink="http://www.w3.org/1999/xlink"><g id="tight-bounds" transform="matrix(1,0,0,1,0.23888215754149655,0.3999999410652606)"><svg viewBox="0 0 333.5222353283262 247.2" height="247.2" width="333.5222353283262"><g><svg viewBox="0 0 395.52000000000004 293.1515012897137" height="247.2" width="333.5222353283262"><g transform="matrix(1,0,0,1,0,181.17938845199865)"><svg viewBox="0 0 395.52000000000004 111.97211283771506" height="111.97211283771506" width="395.52000000000004"><g id="textblocktransform"><svg viewBox="0 0 395.52000000000004 111.97211283771506" height="111.97211283771506" width="395.52000000000004" id="textblock"><g><svg viewBox="0 0 395.52000000000004 111.97211283771506" height="111.97211283771506" width="395.52000000000004"><g transform="matrix(1,0,0,1,0,0)"><svg width="395.52000000000004" viewBox="1 -38.311363635498 190.6232833677 53.971363567897995" height="111.97211283771506" data-palette-color="#ffffff"><g class="wordmark-text-0" data-fill-palette-color="primary" id="text-0"><path d="M17.35-35.8L17.35-35.8Q17.25-35.95 17.07-36.27 16.9-36.6 17-36.7L17-36.7Q17.1-36.8 17.32-36.65 17.55-36.5 17.6-36.45L17.6-36.45Q18.5-35.8 19.28-34.65 20.05-33.5 20.68-32.13 21.3-30.75 21.8-29.25 22.3-27.75 22.6-26.4L22.6-26.4Q23.35-23.1 23.88-19.9 24.4-16.7 24.4-13.3L24.4-13.3Q24.4-13.2 24.43-12.7 24.45-12.2 24.25-12.1L24.25-12.1Q24.1-12.2 23.93-12.6 23.75-13 23.7-13.15L23.7-13.15Q23.1-15 22.63-17.38 22.15-19.75 21.75-21.7L21.75-21.7Q21.45-23.2 21.2-24.58 20.95-25.95 20.63-27.25 20.3-28.55 19.88-29.88 19.45-31.2 18.85-32.65L18.85-32.65Q18.75-32.85 18.53-33.35 18.3-33.85 18.05-34.35 17.8-34.85 17.6-35.27 17.4-35.7 17.35-35.8ZM29.35 1.25L29.35 1.25Q28.8 0.95 28.6 0.88 28.4 0.8 27.85 0.45L27.85 0.45Q26.65-0.25 25.65-1.38 24.65-2.5 23.85-3.85 23.05-5.2 22.43-6.73 21.8-8.25 21.35-9.75L21.35-9.75Q20.35-9.1 18.98-8.97 17.6-8.85 16.45-8.85L16.45-8.85Q15-8.85 13.58-8.95 12.15-9.05 10.7-9.05L10.7-9.05Q9.3-6.45 8.08-4.03 6.85-1.6 6.15 0.5L6.15 0.5Q6.15 0.55 6.1 0.73 6.05 0.9 5.95 0.9L5.95 0.9Q5.8 0.9 5.8 0.55 5.8 0.2 5.8 0.1L5.8 0.1Q5.8-1.9 6.78-4.38 7.75-6.85 8.95-9.25L8.95-9.25 8.2-9.3Q7.9-8.6 7.38-7.35 6.85-6.1 6.38-4.75 5.9-3.4 5.53-2.15 5.15-0.9 5.15-0.15L5.15-0.15Q5.15 0 5 0L5 0Q4.8 0 4.7-0.33 4.6-0.65 4.53-1.05 4.45-1.45 4.42-1.88 4.4-2.3 4.4-2.45L4.4-2.45Q4.4-4.2 4.85-6.13 5.3-8.05 6.05-9.65L6.05-9.65 5.4-9.75Q4.95-8.65 4.55-7.58 4.15-6.5 3.85-5.35L3.85-5.35Q3.85-5.25 3.8-5.1 3.75-4.95 3.65-5L3.65-5Q3.55-5.2 3.53-5.48 3.5-5.75 3.5-5.95L3.5-5.95Q3.5-8.05 4.25-10L4.25-10Q4.5-10.5 4.75-10.5L4.75-10.5Q5.8-10.8 6.88-10.85 7.95-10.9 9.1-10.9L9.1-10.9Q11.6-10.9 14.05-10.53 16.5-10.15 18.95-10.15L18.95-10.15Q20.15-10.15 21.15-10.35L21.15-10.35 21.05-11.15Q20.5-11 19.88-10.95 19.25-10.9 18.7-10.9L18.7-10.9Q16.75-10.9 14.68-11.3 12.6-11.7 10.7-12.25L10.7-12.25Q10.6-12.35 10.3-12.43 10-12.5 10-12.65L10-12.65Q10-12.75 10.3-12.83 10.6-12.9 10.7-12.9L10.7-12.9Q11.4-12.95 12.08-12.98 12.75-13 13.45-13L13.45-13Q14.6-13 15.75-12.98 16.9-12.95 18.1-12.95L18.1-12.95Q18.7-12.95 19.35-12.95 20-12.95 20.6-13L20.6-13 20.5-13.55 19.85-13.55Q17.45-13.55 15.08-14 12.7-14.45 10.3-14.45L10.3-14.45Q8.25-14.45 6.68-13.95 5.1-13.45 3.98-12.8 2.85-12.15 2.15-11.5 1.45-10.85 1.15-10.55L1.15-10.55Q1.05-10.5 1.05-10.5L1.05-10.5Q1-10.5 1-10.6L1-10.6Q1-10.65 1.05-10.7L1.05-10.7Q1.95-12.45 3.25-13.63 4.55-14.8 6.45-15.4L6.45-15.4Q8.35-19.45 10.38-23.45 12.4-27.45 14.65-31.35L14.65-31.35Q14.7-31.45 14.85-31.68 15-31.9 15.15-31.9L15.15-31.9Q15.2-31.85 15.2-31.8L15.2-31.8 15.2-31.7Q15.2-31.3 15.15-31.1L15.15-31.1Q14.2-27.05 12.35-23.3 10.5-19.55 8.55-15.9L8.55-15.9 9.5-15.95Q9.65-16.25 10.28-17.25 10.9-18.25 11.63-19.33 12.35-20.4 12.95-21.28 13.55-22.15 13.7-22.15L13.7-22.15 13.75-22Q13.75-21.75 13.45-20.9 13.15-20.05 12.75-19.05 12.35-18.05 11.98-17.18 11.6-16.3 11.45-15.95L11.45-15.95Q11.75-15.95 12.05-15.93 12.35-15.9 12.65-15.9L12.65-15.9Q13.55-17.7 14.58-19.68 15.6-21.65 16.35-23.7 17.1-25.75 17.38-27.85 17.65-29.95 17.05-32L17.05-32Q17.05-31.75 16.93-31 16.8-30.25 16.6-29.43 16.4-28.6 16.2-27.98 16-27.35 15.8-27.35L15.8-27.35Q15.65-27.35 15.68-27.55 15.7-27.75 15.7-27.8L15.7-27.8Q15.7-29.1 15.88-30.38 16.05-31.65 16.05-32.95L16.05-32.95Q16.05-34.7 15.5-36.35L15.5-36.35Q15.5-36.4 15.35-36.77 15.2-37.15 15.45-37.15L15.45-37.15Q15.55-37.15 15.8-36.9L15.8-36.9Q16.3-36.4 16.78-35.55 17.25-34.7 17.65-33.73 18.05-32.75 18.4-31.8 18.75-30.85 18.95-30.2L18.95-30.2Q19.6-28.05 20.03-25.88 20.45-23.7 20.78-21.53 21.1-19.35 21.45-17.15 21.8-14.95 22.25-12.8L22.25-12.8Q22.7-10.7 23.33-8.7 23.95-6.7 24.85-4.9 25.75-3.1 26.93-1.58 28.1-0.05 29.65 1.1L29.65 1.1Q29.9 1.35 29.83 1.43 29.75 1.5 29.35 1.25ZM29.1-3.6L29.25-3Q29.3-2.7 29.2-2.73 29.1-2.75 28.98-2.9 28.85-3.05 28.73-3.25 28.6-3.45 28.6-3.5L28.6-3.5Q27.4-5.7 26.7-7.98 26-10.25 25.6-12.58 25.2-14.9 24.93-17.28 24.65-19.65 24.28-22.13 23.9-24.6 23.3-27.15 22.7-29.7 21.6-32.35L21.6-32.35Q21.55-32.45 21.45-32.7 21.35-32.95 21.45-33L21.45-33Q21.55-33 21.7-32.85L21.7-32.85 21.9-32.65Q23-31.35 23.85-29.2 24.7-27.05 25.35-24.6 26-22.15 26.43-19.75 26.85-17.35 27.1-15.55L27.1-15.55Q27.5-12.7 27.95-9.55 28.4-6.4 29.1-3.6L29.1-3.6ZM14.4-15.7L14.4-15.7Q15.85-15.55 17.28-15.35 18.7-15.15 20.15-15.05L20.15-15.05Q19.6-17.7 19.2-20.3 18.8-22.9 18.45-25.6L18.45-25.6Q17.8-23 16.68-20.55 15.55-18.1 14.4-15.7ZM30.85 0.7L30.85 0.7Q29.85 0.25 29.1-0.18 28.35-0.6 27.8-1.35L27.8-1.35Q26.95-2.5 26.48-3.65 26-4.8 25.7-5.8L25.7-5.8Q25.6-6.2 25.53-6.7 25.45-7.2 25.55-7.2L25.55-7.2Q25.75-7.2 26.05-6.55 26.35-5.9 26.6-5.45L26.6-5.45Q27.35-3.9 28.5-2.33 29.65-0.75 31 0.25L31 0.25Q31.4 0.6 31.25 0.7 31.1 0.8 30.85 0.7ZM1.3-8.9L1.3-8.9Q1.3-8.9 1.2-8.9L1.2-8.9 1.15-8.9Q1.15-9.05 1.2-9.2 1.25-9.35 1.3-9.5L1.3-9.5Q1.7-10.35 2.08-10.78 2.45-11.2 3.3-11.7L3.3-11.7Q3.8-12 4.7-12.3 5.6-12.6 6.15-12.6L6.15-12.6Q6.25-12.6 6.43-12.58 6.6-12.55 6.6-12.4L6.6-12.4Q6.6-12.25 6.08-12 5.55-11.75 5.4-11.65L5.4-11.65Q3.5-10.5 2.6-9.9 1.7-9.3 1.3-8.9ZM41.05-26.05L41.05-26.05Q41.35-27.15 41.45-28.73 41.55-30.3 41.45-31.88 41.35-33.45 40.97-34.85 40.6-36.25 39.85-37L39.85-37Q39.55-37.3 39.37-37.2 39.2-37.1 39.45-36.7L39.45-36.7Q39.95-35.8 39.92-33.93 39.9-32.05 39.6-29.85 39.3-27.65 38.8-25.45 38.3-23.25 37.8-21.6L37.8-21.6Q37.55-20.9 37.3-19.85 37.05-18.8 36.77-17.73 36.5-16.65 36.3-15.63 36.1-14.6 36-13.9L36-13.9Q36-13.75 35.95-13.33 35.9-12.9 36.05-12.8L36.05-12.8Q36.15-12.8 36.35-13.23 36.55-13.65 36.6-13.75L36.6-13.75Q37.8-16.55 39.05-19.73 40.3-22.9 41.05-26.05ZM39.9-13.85L39.9-13.85Q40.15-14.75 40.6-16.2 41.05-17.65 41.5-19.38 41.95-21.1 42.37-22.98 42.8-24.85 43.02-26.63 43.25-28.4 43.17-29.9 43.1-31.4 42.65-32.35L42.65-32.35Q42.6-32.5 42.45-32.65 42.3-32.8 42.3-32.4L42.3-32.4Q42.4-29.2 41.65-26 40.9-22.8 40.05-20.2L40.05-20.2Q39.4-18.15 38.72-16.1 38.05-14.05 37.57-12.03 37.1-10 36.97-8.05 36.85-6.1 37.35-4.3L37.35-4.3Q37.55-3.65 37.7-3.65L37.7-3.65Q37.85-3.7 37.85-4.3L37.85-4.3Q37.85-5.2 38.02-6.33 38.2-7.45 38.5-8.7 38.8-9.95 39.15-11.28 39.5-12.6 39.9-13.85ZM38.95-0.15L38.95-0.15Q37.2-0.35 35.82-1.9 34.45-3.45 34-5.7L34-5.7Q33.55-7.85 33.77-10.08 34-12.3 34.55-14.25L34.55-14.25Q35.35-17.25 36.45-20.43 37.55-23.6 38.32-26.7 39.1-29.8 39.2-32.68 39.3-35.55 38.2-37.95L38.2-37.95Q38.1-38 38.05-38.18 38-38.35 37.9-38.3L37.9-38.3Q37.75-38.3 37.85-37.95L37.85-37.95Q38.25-35.65 37.9-32.98 37.55-30.3 36.77-27.43 36-24.55 35.02-21.5 34.05-18.45 33.2-15.4L33.2-15.4Q32.55-13.15 32.32-10.63 32.1-8.1 32.65-5.55L32.65-5.55Q32.95-4.25 33.57-3.2 34.2-2.15 35.05-1.43 35.9-0.7 36.9-0.3 37.9 0.1 38.95 0.05L38.95 0.05 39.1 0.05Q39.15 0.05 39.25 0L39.25 0Q39.25-0.15 38.95-0.15ZM37.45-2.65L37.45-2.65Q36.55-3.7 36-5.35L36-5.35Q35.95-5.5 35.85-5.83 35.75-6.15 35.65-6.48 35.55-6.8 35.45-7.08 35.35-7.35 35.3-7.35L35.3-7.35Q35.1-7.35 35.1-6.7 35.1-6.05 35.25-5.2 35.4-4.35 35.7-3.48 36-2.6 36.4-2.1L36.4-2.1Q37.2-1.2 38.02-1 38.85-0.8 39.7-0.8L39.7-0.8Q40-0.8 40.17-0.98 40.35-1.15 39.9-1.25L39.9-1.25Q38.45-1.4 37.45-2.65ZM62.8-15.15L62.8-15.15Q62.75-13 62.05-10.78 61.35-8.55 60.09-6.6 58.84-4.65 57.12-3.13 55.4-1.6 53.3-0.8L53.3-0.8Q52.65-0.55 52.55-0.7L52.55-0.7Q52.55-0.85 52.72-0.95 52.9-1.05 53.15-1.3L53.15-1.3Q55.1-2.8 56.6-4.45 58.09-6.1 59.15-8.03 60.2-9.95 60.72-12.2 61.25-14.45 61.25-17.1L61.25-17.1Q61.25-19.45 59.82-20.88 58.4-22.3 56.35-22.4L56.35-22.4Q54.75-22.5 53.07-21.63 51.4-20.75 50-18.9L50-18.9Q49.95-19.85 50.5-20.75 51.05-21.65 51.97-22.33 52.9-23 54.1-23.4 55.3-23.8 56.55-23.8L56.55-23.8Q57.75-23.8 58.9-23.33 60.05-22.85 60.95-21.8 61.85-20.75 62.35-19.13 62.85-17.5 62.8-15.15ZM48.55-12.35L48.55-12.35Q47.85-9.2 47.07-5.98 46.3-2.75 45.3 0L45.3 0Q45.2 0.1 45.07 0.35 44.95 0.6 44.85 0.5L44.85 0.5Q44.8 0.5 44.7 0.25L44.7 0.25Q44.65 0.15 44.65 0L44.65 0Q44.7-0.65 44.85-1.65 45-2.65 45.17-3.7 45.35-4.75 45.55-5.78 45.75-6.8 45.9-7.55L45.9-7.55Q45.95-7.85 46.15-8.93 46.35-10 46.57-11.45 46.8-12.9 47.02-14.58 47.25-16.25 47.4-17.85 47.55-19.45 47.57-20.75 47.6-22.05 47.4-22.75L47.4-22.75Q47.35-22.95 47.35-23.13 47.35-23.3 47.4-23.3L47.4-23.3Q47.5-23.3 47.6-23.15 47.7-23 47.75-22.9L47.75-22.9Q48.3-22 48.57-20.65 48.85-19.3 48.92-17.8 49-16.3 48.87-14.85 48.75-13.4 48.55-12.35ZM50.35-9.2L50.35-9.2Q50.05-7.3 49.77-5.78 49.5-4.25 49.2-2.65L49.2-2.65Q50.35-3.85 51.22-4.83 52.1-5.8 52.77-6.8 53.45-7.8 54.02-8.9 54.6-10 55.15-11.45L55.15-11.45Q55.6-12.7 55.8-14.15 56-15.6 55.9-16.5L55.9-16.5Q55.9-16.8 55.72-16.95 55.55-17.1 55.1-16.9L55.1-16.9Q54.65-16.65 53.95-16.03 53.25-15.4 52.52-14.43 51.8-13.45 51.2-12.13 50.6-10.8 50.35-9.2ZM50.7-13.85L50.7-13.85Q50.9-14.5 51.55-15.5 52.2-16.5 53.05-17.35 53.9-18.2 54.85-18.68 55.8-19.15 56.65-18.7L56.65-18.7Q57.25-18.4 57.45-17.48 57.65-16.55 57.55-15.4 57.45-14.25 57.12-12.98 56.8-11.7 56.4-10.75L56.4-10.75Q55.25-7.9 53.52-5.65 51.8-3.4 48.9-1.45L48.9-1.45Q48.85-1.2 49.02-1.13 49.2-1.05 49.47-1.1 49.75-1.15 50.07-1.3 50.4-1.45 50.65-1.7L50.65-1.7Q51.2-2.15 51.87-2.75 52.55-3.35 53.2-3.9 53.85-4.45 54.3-4.78 54.75-5.1 54.85-5.05L54.85-5.05Q54.9-5 54.75-4.73 54.6-4.45 54.35-4.1 54.1-3.75 53.85-3.43 53.6-3.1 53.5-3L53.5-3Q52.85-2.3 52.32-1.78 51.8-1.25 51.05-0.75L51.05-0.75Q50.45-0.3 49.87-0.13 49.3 0.05 48.6-0.2L48.6-0.2Q48.05 2.3 47.27 5 46.5 7.7 45.95 9.8L45.95 9.8Q45.8 10.6 45.65 10.5L45.65 10.5Q45.55 10.4 45.52 10.15 45.5 9.9 45.5 9.6L45.5 9.6Q45.5 7.5 45.75 5.55 46 3.6 46.4 1.63 46.8-0.35 47.27-2.38 47.75-4.4 48.25-6.6L48.25-6.6Q48.8-9 49.27-11.28 49.75-13.55 50.1-16.35L50.1-16.35Q50.25-17.55 50.85-18.55 51.45-19.55 52.3-20.23 53.15-20.9 54.17-21.25 55.2-21.6 56.2-21.6L56.2-21.6Q57.84-21.55 59.07-20.38 60.3-19.2 60.3-16.6L60.3-16.6Q60.3-14.7 59.72-13.05 59.15-11.4 58.45-10.05L58.45-10.05Q58.34-9.9 58.02-9.5 57.7-9.1 57.59-9.2L57.59-9.2Q57.55-9.25 57.67-9.65 57.8-10.05 57.9-10.3L57.9-10.3Q58.2-11.1 58.45-12.45 58.7-13.8 58.72-15.2 58.75-16.6 58.37-17.8 58-19 57-19.5L57-19.5Q55.8-20.1 54.67-19.68 53.55-19.25 52.67-18.3 51.8-17.35 51.25-16.13 50.7-14.9 50.7-13.85ZM46.3-24.25L46.3-24.25Q47.05-21.6 46.87-18.68 46.7-15.75 46.05-12.68 45.4-9.6 44.55-6.45 43.7-3.3 43.1-0.15L43.1-0.15Q42.8 1.55 42.62 3.53 42.45 5.5 42.55 7.55 42.65 9.6 43.07 11.58 43.5 13.55 44.4 15.25L44.4 15.25Q44.6 15.65 44.47 15.65 44.35 15.65 44.1 15.35L44.1 15.35Q42.9 13.65 42.27 11.58 41.65 9.5 41.42 7.33 41.2 5.15 41.3 2.95 41.4 0.75 41.7-1.25L41.7-1.25Q42.2-4.4 42.97-7.45 43.75-10.5 44.45-13.4 45.15-16.3 45.62-19.03 46.1-21.75 45.95-24.25L45.95-24.25Q45.95-24.6 46.05-24.6L46.05-24.6Q46.1-24.65 46.2-24.5 46.3-24.35 46.3-24.25ZM46.1 15.65L46.1 15.65Q45.95 15.7 45.75 15.5L45.75 15.5 45.55 15.3Q45 14.65 44.55 13.95 44.1 13.25 43.8 11.6L43.8 11.6Q43.7 10.95 43.65 10 43.6 9.05 43.6 8.15 43.6 7.25 43.7 6.6 43.8 5.95 44 6L44 6Q44.2 6 44.35 6.7 44.5 7.4 44.55 8.1L44.55 8.1Q44.65 9.05 44.67 9.83 44.7 10.6 44.85 11.4L44.85 11.4Q45.05 12.4 45.35 13.35 45.65 14.3 46.05 15.15L46.05 15.15Q46.1 15.25 46.12 15.45 46.15 15.65 46.1 15.65ZM73.24-26.35L73.24-26.35Q72.39-23.4 71.32-20.3 70.24-17.2 69.09-14.45L69.09-14.45Q69.04-14.3 68.82-13.9 68.59-13.5 68.44-13.55L68.44-13.55Q68.34-13.55 68.32-14.03 68.29-14.5 68.34-14.75L68.34-14.75Q68.44-15.4 68.64-16.35 68.84-17.3 69.07-18.3 69.29-19.3 69.52-20.25 69.74-21.2 69.99-21.9L69.99-21.9Q70.09-22.2 70.34-23.2 70.59-24.2 70.89-25.6 71.19-27 71.52-28.6 71.84-30.2 72.07-31.7 72.29-33.2 72.39-34.45 72.49-35.7 72.34-36.35L72.34-36.35Q72.19-36.85 72.34-36.85L72.34-36.85Q72.44-36.85 72.52-36.73 72.59-36.6 72.69-36.5L72.69-36.5Q73.19-35.6 73.47-34.3 73.74-33 73.79-31.6 73.84-30.2 73.69-28.8 73.54-27.4 73.24-26.35ZM71.24-37.9L71.24-37.9Q71.89-35.35 71.57-32.55 71.24-29.75 70.44-26.85 69.64-23.95 68.64-20.98 67.64-18 66.94-15L66.94-15Q66.49-13.1 66.22-11.08 65.94-9.05 65.94-7.08 65.94-5.1 66.27-3.28 66.59-1.45 67.39 0L67.39 0Q67.49 0.2 67.47 0.3 67.44 0.4 67.14 0L67.14 0Q65.84-1.5 65.22-3.4 64.59-5.3 64.49-7.4 64.39-9.5 64.69-11.75 64.99-14 65.54-16.15L65.54-16.15Q66.29-19.15 67.22-22.05 68.14-24.95 68.97-27.7 69.79-30.45 70.34-33.02 70.89-35.6 70.89-38L70.89-38Q70.89-38.25 70.94-38.25L70.94-38.25Q71.14-38.25 71.24-37.9ZM80.34 0L80.34 0Q78.49-0.85 77.39-2.65 76.29-4.45 76.04-6.8L76.04-6.8Q75.79-9.1 76.04-10.63 76.29-12.15 76.64-13.65L76.64-13.65Q76.69-13.85 76.84-14.33 76.99-14.8 77.07-15.3 77.14-15.8 77.07-16.18 76.99-16.55 76.64-16.65L76.64-16.65Q75.94-16.8 75.04-16.03 74.14-15.25 73.32-14.1 72.49-12.95 71.82-11.73 71.14-10.5 70.94-9.8L70.94-9.8Q70.49-8.35 69.99-7.05 69.49-5.75 69.09-4.45L69.09-4.45Q68.94-3.9 68.84-3.95L68.84-3.95Q68.74-3.95 68.72-4.15 68.69-4.35 68.69-4.6L68.69-4.6Q68.69-6.6 68.99-8.63 69.29-10.65 69.82-12.65 70.34-14.65 70.99-16.65 71.64-18.65 72.24-20.7L72.24-20.7Q73.04-23.25 73.77-25.9 74.49-28.55 74.74-31.6L74.74-31.6Q74.74-31.85 74.74-31.88 74.74-31.9 74.79-31.9L74.79-31.9Q74.94-31.9 75.04-31.5L75.04-31.5Q75.29-30.85 75.27-29.68 75.24-28.5 75.07-27.1 74.89-25.7 74.57-24.25 74.24-22.8 73.89-21.65L73.89-21.65Q74.84-22.65 76.14-23.2 77.44-23.75 79.24-23.5L79.24-23.5Q81.29-23.2 82.39-22.03 83.49-20.85 83.89-19.2 84.29-17.55 84.12-15.68 83.94-13.8 83.49-12.05L83.49-12.05Q83.09-10.7 82.74-9.68 82.39-8.65 82.04-7.8 81.69-6.95 81.44-6.2 81.19-5.45 81.04-4.6L81.04-4.6Q80.94-4.05 80.84-4.05L80.84-4.05Q80.74-4.05 80.67-4.25 80.59-4.45 80.54-4.65L80.54-4.65Q80.24-5.75 80.52-7.35 80.79-8.95 81.24-10.73 81.69-12.5 82.07-14.33 82.44-16.15 82.37-17.7 82.29-19.25 81.54-20.43 80.79-21.6 78.99-22.05L78.99-22.05Q78.24-22.25 77.37-22.18 76.49-22.1 75.72-21.78 74.94-21.45 74.34-20.85 73.74-20.25 73.54-19.45L73.54-19.45Q74.49-20.45 75.99-21.1 77.49-21.75 78.89-21.3L78.89-21.3Q80.19-20.9 80.74-19.85 81.29-18.8 81.39-18L81.39-18Q81.59-16.25 81.17-14.83 80.74-13.4 80.19-12.1L80.19-12.1Q80.09-11.95 79.89-11.63 79.69-11.3 79.59-11.35L79.59-11.35Q79.49-11.35 79.49-11.75 79.49-12.15 79.54-12.35L79.54-12.35Q79.69-12.85 79.79-13.93 79.89-15 79.87-16.15 79.84-17.3 79.57-18.3 79.29-19.3 78.69-19.65L78.69-19.65Q77.99-20.05 76.99-19.88 75.99-19.7 74.84-18.65L74.84-18.65Q73.84-17.75 73.14-16.57 72.44-15.4 71.94-13.5L71.94-13.5Q72.24-14.05 72.89-15.05 73.54-16.05 74.37-16.95 75.19-17.85 76.12-18.38 77.04-18.9 77.89-18.5L77.89-18.5Q78.44-18.2 78.62-17.48 78.79-16.75 78.72-15.85 78.64-14.95 78.44-14.1 78.24-13.25 78.09-12.75L78.09-12.75Q77.54-11.25 77.34-9.47 77.14-7.7 77.37-6 77.59-4.3 78.34-2.8 79.09-1.3 80.54-0.25L80.54-0.25Q80.99 0 80.72 0 80.44 0 80.34 0ZM81.64-0.4L81.64-0.4Q80.94-0.8 80.32-1.25 79.69-1.7 79.09-3L79.09-3Q78.84-3.5 78.72-4.35 78.59-5.2 78.57-5.98 78.54-6.75 78.64-7.28 78.74-7.8 78.89-7.75L78.89-7.75Q78.99-7.75 79.09-7.53 79.19-7.3 79.24-7 79.29-6.7 79.34-6.43 79.39-6.15 79.39-6.05L79.39-6.05Q79.59-4.95 79.74-4.42 79.89-3.9 80.14-3.3L80.14-3.3Q80.54-2.5 80.94-1.85 81.34-1.2 81.94-0.65L81.94-0.65Q82.19-0.45 82.07-0.35 81.94-0.25 81.64-0.4ZM68.99 0L68.99 0Q69.04 0 68.92 0.05 68.79 0.1 68.44 0L68.44 0Q68.04-0.2 67.62-0.75 67.19-1.3 66.94-2.9L66.94-2.9Q66.84-3.55 66.84-4.48 66.84-5.4 66.92-6.23 66.99-7.05 67.14-7.65 67.29-8.25 67.49-8.2L67.49-8.2Q67.54-8.2 67.59-7.9 67.64-7.6 67.69-7.23 67.74-6.85 67.74-6.48 67.74-6.1 67.74-5.95L67.74-5.95Q67.79-4.85 67.87-4.33 67.94-3.8 68.09-2.9L68.09-2.9Q68.24-1.95 68.44-1.18 68.64-0.4 68.99 0ZM104.59-17.6L104.59-17.6Q104.19-15.6 103.24-13.6 102.29-11.6 101.44-9.85L101.44-9.85Q101.39-9.75 101.22-9.5 101.04-9.25 100.94-9.25L100.94-9.25Q100.79-9.3 100.79-9.58 100.79-9.85 100.79-9.95L100.79-9.95Q100.84-10.4 100.97-11.03 101.09-11.65 101.19-12.33 101.29-13 101.42-13.63 101.54-14.25 101.69-14.75L101.69-14.75Q102.14-16.45 102.44-17.68 102.74-18.9 102.89-19.9 103.04-20.9 103.07-21.8 103.09-22.7 102.94-23.75L102.94-23.75Q102.89-24.15 102.99-24.25L102.99-24.25Q103.09-24.3 103.24-24.15 103.39-24 103.49-23.85L103.49-23.85Q104.34-22.5 104.64-20.88 104.94-19.25 104.59-17.6ZM105.59-21.25L105.79-20.95Q106.44-20 106.44-18.45 106.44-16.9 106.14-15.28 105.84-13.65 105.39-12.15 104.94-10.65 104.74-9.75L104.74-9.75Q104.34-8 103.64-6.25 102.94-4.5 102.44-3.15L102.44-3.15Q102.39-3 102.29-2.83 102.19-2.65 102.09-2.65L102.09-2.65Q101.99-2.65 101.99-2.85 101.99-3.05 101.99-3.2L101.99-3.2Q101.84-5.95 102.59-8.58 103.34-11.2 104.19-13.9L104.19-13.9Q104.69-15.55 105.14-17.28 105.59-19 105.54-21.05L105.54-21.05Q105.54-21.25 105.59-21.25L105.59-21.25ZM101.09-21.8L101.09-21.8Q98.04-20.55 95.92-18.23 93.79-15.9 92.64-13L92.64-13Q92.14-11.7 91.89-10.68 91.64-9.65 91.49-8.45L91.49-8.45Q91.44-8.2 91.64-7.95 91.84-7.7 92.04-7.95L92.04-7.95Q92.94-9.05 94.34-10.75 95.74-12.45 97.14-14.35 98.54-16.25 99.67-18.2 100.79-20.15 101.09-21.8ZM97.74-4.85L97.74-4.85Q96.99-3.8 96.29-2.9 95.59-2 94.74-1.33 93.89-0.65 92.84-0.25 91.79 0.15 90.44 0.2L90.44 0.2Q88.19 0.3 87.02-0.95 85.84-2.2 85.39-4 84.94-5.8 85.07-7.73 85.19-9.65 85.59-10.9L85.59-10.9Q86.14-12.65 86.92-14.23 87.69-15.8 88.57-17.07 89.44-18.35 90.37-19.28 91.29-20.2 92.19-20.7L92.19-20.7Q92.24-20.7 92.42-20.8 92.59-20.9 92.59-20.75L92.59-20.75Q92.64-20.75 92.54-20.6 92.44-20.45 92.34-20.35L92.34-20.35Q89.74-17.65 88.22-14.25 86.69-10.85 86.49-7.25L86.49-7.25Q86.44-6.35 86.57-5.3 86.69-4.25 87.07-3.33 87.44-2.4 88.14-1.78 88.84-1.15 90.04-1.15L90.04-1.15Q90.99-1.15 91.79-1.48 92.59-1.8 93.29-2.33 93.99-2.85 94.57-3.48 95.14-4.1 95.59-4.65L95.59-4.65Q96.59-5.9 97.44-7.25L97.44-7.25Q97.44-8.25 97.57-9.2 97.69-10.15 97.94-11.1L97.94-11.1Q98.09-11.8 98.22-12.23 98.34-12.65 98.47-13.03 98.59-13.4 98.72-13.83 98.84-14.25 99.09-14.95L99.09-14.95Q98.29-13.55 97.52-12.33 96.74-11.1 95.87-9.98 94.99-8.85 94.07-7.78 93.14-6.7 92.04-5.6L92.04-5.6Q91.19-4.75 90.64-5.05 90.09-5.35 89.99-6.45L89.99-6.45Q89.89-8.15 90.17-9.75 90.44-11.35 91.14-13.1L91.14-13.1Q91.79-14.7 92.77-16.2 93.74-17.7 95.02-18.93 96.29-20.15 97.84-21.03 99.39-21.9 101.14-22.2L101.14-22.2Q101.24-22.75 101.32-23.15 101.39-23.55 101.44-23.95L101.44-23.95Q101.54-24.5 101.54-24.5L101.54-24.5Q101.64-24.55 101.77-24.4 101.89-24.25 101.99-24L101.99-24Q102.59-22.35 102.39-20.7 102.19-19.05 101.67-17.35 101.14-15.65 100.44-13.88 99.74-12.1 99.29-10.3L99.29-10.3Q98.69-7.75 98.97-5.03 99.24-2.3 101.09-0.1L101.09-0.1Q101.24 0.1 101.24 0.1L101.24 0.1Q101.19 0.15 100.94 0L100.94 0Q99.49-0.9 98.77-2.18 98.04-3.45 97.74-4.85ZM99.49-22.55L99.49-22.55Q99.59-22.45 99.47-22.4 99.34-22.35 98.94-22.25L98.94-22.25Q98.29-22.05 97.37-21.5 96.44-20.95 95.42-20.1 94.39-19.25 93.39-18.13 92.39-17 91.64-15.7L91.64-15.7Q90.89-14.35 90.37-13.05 89.84-11.75 89.52-10.68 89.19-9.6 89.04-8.83 88.89-8.05 88.89-7.75L88.89-7.75Q88.89-7 88.89-6.18 88.89-5.35 89.09-4.7 89.29-4.05 89.79-3.7 90.29-3.35 91.29-3.5L91.29-3.5Q91.34-3.5 91.54-3.58 91.74-3.65 91.94-3.73 92.14-3.8 92.32-3.85 92.49-3.9 92.54-3.9L92.54-3.9Q92.59-3.8 92.47-3.65 92.34-3.5 92.14-3.33 91.94-3.15 91.77-3 91.59-2.85 91.54-2.8L91.54-2.8Q90.29-2.05 89.44-2.35 88.59-2.65 88.12-3.48 87.64-4.3 87.47-5.43 87.29-6.55 87.34-7.45L87.34-7.45Q87.44-9.2 87.89-10.93 88.34-12.65 89.04-14.4L89.04-14.4Q89.59-15.75 90.69-17.18 91.79-18.6 93.17-19.8 94.54-21 96.04-21.78 97.54-22.55 98.94-22.6L98.94-22.6Q99.44-22.6 99.49-22.55ZM102.44-0.1L102.44-0.1Q102.54 0.05 102.49 0.1L102.49 0.1Q102.34 0.1 102.09 0L102.09 0Q101.94-0.1 101.29-0.6 100.64-1.1 100.34-2.2L100.34-2.2Q100.24-2.6 100.17-3.23 100.09-3.85 100.09-4.4 100.09-4.95 100.17-5.35 100.24-5.75 100.39-5.75L100.39-5.75Q100.54-5.75 100.72-5.15 100.89-4.55 100.94-4.4L100.94-4.4Q101.09-3.7 101.22-3.18 101.34-2.65 101.49-2.2L101.49-2.2Q101.69-1.65 102.02-0.95 102.34-0.25 102.44-0.1ZM133.14-15.75L133.14-15.75Q132.29-14 131.14-12.23 129.99-10.45 128.74-9.05L128.74-9.05Q128.69-8.95 128.49-8.72 128.29-8.5 128.14-8.55L128.14-8.55Q128.04-8.65 128.09-8.9 128.14-9.15 128.19-9.3L128.19-9.3Q128.44-10.1 128.94-11.4 129.44-12.7 129.99-13.5L129.99-13.5Q130.14-13.75 130.61-14.9 131.09-16.05 131.54-17.48 131.99-18.9 132.21-20.25 132.44-21.6 132.14-22.25L132.14-22.25Q132.14-22.25 132.14-22.4L132.14-22.4 132.14-22.45Q132.39-22.45 132.49-22.25L132.49-22.25Q133.04-21.6 133.31-20.75 133.59-19.9 133.64-19 133.69-18.1 133.56-17.23 133.44-16.35 133.14-15.75ZM134.79-18.75L134.79-18.75Q135.34-17.75 135.11-16.28 134.89-14.8 134.31-13.28 133.74-11.75 133.01-10.38 132.29-9 131.84-8.15L131.84-8.15Q131.09-6.7 130.01-5.23 128.94-3.75 128.04-2.6L128.04-2.6Q127.79-2.25 127.59-2.25L127.59-2.25Q127.49-2.35 127.51-2.5 127.54-2.65 127.59-2.8L127.59-2.8Q128.39-5.4 129.59-7.63 130.79-9.85 132.09-12.25L132.09-12.25Q132.94-13.75 133.64-15.35 134.34-16.95 134.54-18.85L134.54-18.85Q134.54-19.05 134.64-19.05L134.64-19.05Q134.69-18.95 134.74-18.9 134.79-18.85 134.79-18.75ZM121.49-15.75L121.49-15.75Q120.64-14 119.49-12.23 118.34-10.45 117.09-9.05L117.09-9.05Q117.04-8.95 116.84-8.72 116.64-8.5 116.49-8.55L116.49-8.55Q116.39-8.65 116.44-8.9 116.49-9.15 116.54-9.3L116.54-9.3Q116.79-10.1 117.29-11.4 117.79-12.7 118.34-13.5L118.34-13.5Q118.49-13.75 118.96-14.9 119.44-16.05 119.89-17.48 120.34-18.9 120.59-20.25 120.84-21.6 120.54-22.25L120.54-22.25Q120.49-22.3 120.49-22.4L120.49-22.4Q120.49-22.45 120.54-22.45L120.54-22.45Q120.74-22.45 120.84-22.25L120.84-22.25Q121.39-21.6 121.66-20.75 121.94-19.9 121.99-19 122.04-18.1 121.91-17.23 121.79-16.35 121.49-15.75ZM123.04-20L123.04-20Q123.34-20 123.66-19.28 123.99-18.55 124.14-17.05L124.14-17.05Q124.39-15.2 124.06-13.23 123.74-11.25 123.24-9.5L123.24-9.5Q123.24-9.4 123.19-9.15 123.14-8.9 122.94-8.85L122.94-8.85Q122.84-8.85 122.74-9.1 122.64-9.35 122.64-9.45L122.64-9.45Q122.49-10 122.39-10.78 122.29-11.55 122.29-12.35L122.29-12.35Q121.99-11.65 121.69-11 121.39-10.35 121.09-9.8L121.09-9.8 121.09-9.3Q121.14-7.1 121.99-4.83 122.84-2.55 124.89-0.95L124.89-0.95Q124.69-1.45 124.61-1.68 124.54-1.9 124.09-2.55L124.09-2.55Q123.84-2.85 123.64-3.38 123.44-3.9 123.29-4.38 123.14-4.85 123.11-5.2 123.09-5.55 123.24-5.55L123.24-5.55Q123.49-5.65 123.71-5.3 123.94-4.95 124.09-4.65L124.09-4.65Q123.99-5.7 124.19-6.78 124.39-7.85 124.49-8.75L124.49-8.75Q124.64-10.05 124.74-11.08 124.84-12.1 124.89-13.55L124.89-13.55Q124.99-15.1 124.89-16.95 124.79-18.8 124.09-20.55L124.09-20.55Q123.99-20.7 124.14-20.7L124.14-20.7Q124.24-20.7 124.29-20.65 124.34-20.6 124.44-20.55L124.44-20.55Q125.09-20.05 125.51-19.18 125.94-18.3 126.16-17.23 126.39-16.15 126.46-14.98 126.54-13.8 126.54-12.75L126.54-12.75Q127.29-14.1 128.09-15.45 128.89-16.8 129.51-18.13 130.14-19.45 130.49-20.75 130.84-22.05 130.79-23.3L130.79-23.3Q130.79-23.45 130.84-23.45L130.84-23.45Q130.99-23.5 130.99-23.3L130.99-23.3Q131.74-21.65 131.46-19.95 131.19-18.25 130.41-16.55 129.64-14.85 128.59-13.18 127.54-11.5 126.74-9.85L126.74-9.85Q125.74-7.75 125.31-5.25 124.89-2.75 125.59 0L125.59 0 125.59 0.05Q125.54 0.1 125.54 0.1L125.54 0.1Q125.44 0.1 125.39 0.05L125.39 0.05Q125.34 0.05 125.29 0L125.29 0Q125.14-0.2 124.96-0.4 124.79-0.6 124.44-0.8L124.44-0.8Q122.14-2 121.11-3.73 120.09-5.45 119.79-7.35L119.79-7.35Q118.99-6.1 118.06-4.85 117.14-3.6 116.39-2.6L116.39-2.6Q116.14-2.25 115.94-2.25L115.94-2.25Q115.84-2.35 115.86-2.5 115.89-2.65 115.94-2.8L115.94-2.8Q116.74-5.4 117.99-7.73 119.24-10.05 120.59-12.4L120.59-12.4Q120.99-13.1 121.36-13.78 121.74-14.45 122.06-15.15 122.39-15.85 122.61-16.7 122.84-17.55 122.99-18.65L122.99-18.65Q123.04-19 122.96-19.5 122.89-20 123.04-20ZM112.49-17.2L112.49-17.2Q112.49-15.35 112.29-13.3 112.09-11.25 111.59-9.5L111.59-9.5Q111.59-9.4 111.54-9.15 111.49-8.9 111.29-8.85L111.29-8.85Q111.19-8.85 111.09-9.1 110.99-9.35 110.99-9.45L110.99-9.45Q110.89-9.85 110.81-10.43 110.74-11 110.69-11.6 110.64-12.2 110.61-12.8 110.59-13.4 110.64-13.85L110.64-13.85Q110.69-14.15 110.59-15.35 110.49-16.55 110.29-17.95 110.09-19.35 109.74-20.65 109.39-21.95 108.89-22.4L108.89-22.4Q108.79-22.5 108.76-22.63 108.74-22.75 108.79-22.75L108.79-22.75Q108.89-22.75 109.01-22.68 109.14-22.6 109.24-22.6L109.24-22.6Q109.94-22.25 110.54-21.6 111.14-20.95 111.56-20.2 111.99-19.45 112.24-18.65 112.49-17.85 112.49-17.2ZM119.34-23.2L119.34-23.2Q120.09-21.55 119.81-19.88 119.54-18.2 118.76-16.53 117.99-14.85 116.94-13.18 115.89-11.5 115.09-9.85L115.09-9.85Q114.09-7.75 113.66-5.25 113.24-2.75 113.94 0L113.94 0 113.94 0.05Q113.89 0.1 113.89 0.1L113.89 0.1Q113.79 0.1 113.74 0.05L113.74 0.05Q113.69 0.05 113.69 0L113.69 0Q113.54-0.2 113.34-0.4 113.14-0.6 112.79-0.8L112.79-0.8Q111.34-1.55 110.39-2.55 109.44-3.55 108.91-4.7 108.39-5.85 108.16-7.1 107.94-8.35 107.94-9.6L107.94-9.6Q107.89-11.4 108.01-13.23 108.14-15.05 108.16-16.75 108.19-18.45 107.99-20.03 107.79-21.6 107.14-22.9L107.14-22.9Q107.14-23 107.14-23L107.14-23Q107.24-23.1 107.34-23.03 107.44-22.95 107.49-22.95L107.49-22.95Q108.79-21.75 109.24-20.15 109.69-18.55 109.74-16.75 109.79-14.95 109.59-13.05 109.39-11.15 109.44-9.3L109.44-9.3Q109.49-8.2 109.69-7.05 109.89-5.9 110.34-4.83 110.79-3.75 111.51-2.75 112.24-1.75 113.24-0.95L113.24-0.95Q113.04-1.45 112.94-1.68 112.84-1.9 112.44-2.55L112.44-2.55Q112.19-2.85 111.99-3.38 111.79-3.9 111.64-4.38 111.49-4.85 111.46-5.2 111.44-5.55 111.59-5.55L111.59-5.55Q111.84-5.65 112.06-5.3 112.29-4.95 112.44-4.65L112.44-4.65Q112.39-5.7 112.56-6.78 112.74-7.85 112.84-8.75L112.84-8.75Q112.99-10.05 113.09-11.08 113.19-12.1 113.24-13.55L113.24-13.55Q113.34-15.1 113.26-16.95 113.19-18.8 112.44-20.55L112.44-20.55Q112.44-20.7 112.49-20.7L112.49-20.7Q112.59-20.7 112.64-20.65 112.69-20.6 112.79-20.55L112.79-20.55Q113.44-20.05 113.86-19.18 114.29-18.3 114.51-17.23 114.74-16.15 114.81-14.98 114.89-13.8 114.89-12.75L114.89-12.75Q115.64-14.1 116.44-15.45 117.24-16.8 117.86-18.13 118.49-19.45 118.84-20.75 119.19-22.05 119.14-23.3L119.14-23.3Q119.14-23.45 119.24-23.45L119.24-23.45Q119.29-23.5 119.31-23.4 119.34-23.3 119.34-23.2ZM115.29 0L115.29 0Q115.29 0.2 115.19 0.2L115.19 0.2Q115.14 0.2 115.01 0.13 114.89 0.05 114.79 0L114.79 0Q114.39-0.3 114.21-0.85 114.04-1.4 114.14-2.5L114.14-2.5Q114.14-2.95 114.24-3.5 114.34-4.05 114.49-4.53 114.64-5 114.79-5.28 114.94-5.55 115.09-5.5L115.09-5.5Q115.34-5.4 115.31-4.88 115.29-4.35 115.29-4.1L115.29-4.1Q115.24-2.8 115.24-1.75 115.24-0.7 115.29 0ZM126.94 0L126.94 0Q126.94 0.2 126.84 0.2L126.84 0.2Q126.79 0.2 126.66 0.13 126.54 0.05 126.44 0L126.44 0Q126.04-0.3 125.86-0.85 125.69-1.4 125.79-2.5L125.79-2.5Q125.79-2.95 125.89-3.5 125.99-4.05 126.14-4.53 126.29-5 126.44-5.28 126.59-5.55 126.74-5.5L126.74-5.5Q126.99-5.4 126.96-4.88 126.94-4.35 126.94-4.1L126.94-4.1Q126.89-2.8 126.89-1.75 126.89-0.7 126.94 0ZM154.99-17.6L154.99-17.6Q154.59-15.6 153.64-13.6 152.69-11.6 151.84-9.85L151.84-9.85Q151.79-9.75 151.61-9.5 151.44-9.25 151.34-9.25L151.34-9.25Q151.19-9.3 151.19-9.58 151.19-9.85 151.19-9.95L151.19-9.95Q151.24-10.4 151.36-11.03 151.49-11.65 151.59-12.33 151.69-13 151.81-13.63 151.94-14.25 152.09-14.75L152.09-14.75Q152.54-16.45 152.84-17.68 153.14-18.9 153.29-19.9 153.44-20.9 153.46-21.8 153.49-22.7 153.34-23.75L153.34-23.75Q153.29-24.15 153.39-24.25L153.39-24.25Q153.49-24.3 153.64-24.15 153.79-24 153.89-23.85L153.89-23.85Q154.74-22.5 155.04-20.88 155.34-19.25 154.99-17.6ZM155.99-21.25L156.19-20.95Q156.84-20 156.84-18.45 156.84-16.9 156.54-15.28 156.24-13.65 155.79-12.15 155.34-10.65 155.14-9.75L155.14-9.75Q154.74-8 154.04-6.25 153.34-4.5 152.84-3.15L152.84-3.15Q152.79-3 152.69-2.83 152.59-2.65 152.49-2.65L152.49-2.65Q152.39-2.65 152.39-2.85 152.39-3.05 152.39-3.2L152.39-3.2Q152.24-5.95 152.99-8.58 153.74-11.2 154.59-13.9L154.59-13.9Q155.09-15.55 155.54-17.28 155.99-19 155.94-21.05L155.94-21.05Q155.94-21.25 155.99-21.25L155.99-21.25ZM151.49-21.8L151.49-21.8Q148.44-20.55 146.31-18.23 144.19-15.9 143.04-13L143.04-13Q142.54-11.7 142.29-10.68 142.04-9.65 141.89-8.45L141.89-8.45Q141.84-8.2 142.04-7.95 142.24-7.7 142.44-7.95L142.44-7.95Q143.34-9.05 144.74-10.75 146.14-12.45 147.54-14.35 148.94-16.25 150.06-18.2 151.19-20.15 151.49-21.8ZM148.14-4.85L148.14-4.85Q147.39-3.8 146.69-2.9 145.99-2 145.14-1.33 144.29-0.65 143.24-0.25 142.19 0.15 140.84 0.2L140.84 0.2Q138.59 0.3 137.41-0.95 136.24-2.2 135.79-4 135.34-5.8 135.46-7.73 135.59-9.65 135.99-10.9L135.99-10.9Q136.54-12.65 137.31-14.23 138.09-15.8 138.96-17.07 139.84-18.35 140.76-19.28 141.69-20.2 142.59-20.7L142.59-20.7Q142.64-20.7 142.81-20.8 142.99-20.9 142.99-20.75L142.99-20.75Q143.04-20.75 142.94-20.6 142.84-20.45 142.74-20.35L142.74-20.35Q140.14-17.65 138.61-14.25 137.09-10.85 136.89-7.25L136.89-7.25Q136.84-6.35 136.96-5.3 137.09-4.25 137.46-3.33 137.84-2.4 138.54-1.78 139.24-1.15 140.44-1.15L140.44-1.15Q141.39-1.15 142.19-1.48 142.99-1.8 143.69-2.33 144.39-2.85 144.96-3.48 145.54-4.1 145.99-4.65L145.99-4.65Q146.99-5.9 147.84-7.25L147.84-7.25Q147.84-8.25 147.96-9.2 148.09-10.15 148.34-11.1L148.34-11.1Q148.49-11.8 148.61-12.23 148.74-12.65 148.86-13.03 148.99-13.4 149.11-13.83 149.24-14.25 149.49-14.95L149.49-14.95Q148.69-13.55 147.91-12.33 147.14-11.1 146.26-9.98 145.39-8.85 144.46-7.78 143.54-6.7 142.44-5.6L142.44-5.6Q141.59-4.75 141.04-5.05 140.49-5.35 140.39-6.45L140.39-6.45Q140.29-8.15 140.56-9.75 140.84-11.35 141.54-13.1L141.54-13.1Q142.19-14.7 143.16-16.2 144.14-17.7 145.41-18.93 146.69-20.15 148.24-21.03 149.79-21.9 151.54-22.2L151.54-22.2Q151.64-22.75 151.71-23.15 151.79-23.55 151.84-23.95L151.84-23.95Q151.94-24.5 151.94-24.5L151.94-24.5Q152.04-24.55 152.16-24.4 152.29-24.25 152.39-24L152.39-24Q152.99-22.35 152.79-20.7 152.59-19.05 152.06-17.35 151.54-15.65 150.84-13.88 150.14-12.1 149.69-10.3L149.69-10.3Q149.09-7.75 149.36-5.03 149.64-2.3 151.49-0.1L151.49-0.1Q151.64 0.1 151.64 0.1L151.64 0.1Q151.59 0.15 151.34 0L151.34 0Q149.89-0.9 149.16-2.18 148.44-3.45 148.14-4.85ZM149.89-22.55L149.89-22.55Q149.99-22.45 149.86-22.4 149.74-22.35 149.34-22.25L149.34-22.25Q148.69-22.05 147.76-21.5 146.84-20.95 145.81-20.1 144.79-19.25 143.79-18.13 142.79-17 142.04-15.7L142.04-15.7Q141.29-14.35 140.76-13.05 140.24-11.75 139.91-10.68 139.59-9.6 139.44-8.83 139.29-8.05 139.29-7.75L139.29-7.75Q139.29-7 139.29-6.18 139.29-5.35 139.49-4.7 139.69-4.05 140.19-3.7 140.69-3.35 141.69-3.5L141.69-3.5Q141.74-3.5 141.94-3.58 142.14-3.65 142.34-3.73 142.54-3.8 142.71-3.85 142.89-3.9 142.94-3.9L142.94-3.9Q142.99-3.8 142.86-3.65 142.74-3.5 142.54-3.33 142.34-3.15 142.16-3 141.99-2.85 141.94-2.8L141.94-2.8Q140.69-2.05 139.84-2.35 138.99-2.65 138.51-3.48 138.04-4.3 137.86-5.43 137.69-6.55 137.74-7.45L137.74-7.45Q137.84-9.2 138.29-10.93 138.74-12.65 139.44-14.4L139.44-14.4Q139.99-15.75 141.09-17.18 142.19-18.6 143.56-19.8 144.94-21 146.44-21.78 147.94-22.55 149.34-22.6L149.34-22.6Q149.84-22.6 149.89-22.55ZM152.84-0.1L152.84-0.1Q152.94 0.05 152.89 0.1L152.89 0.1Q152.74 0.1 152.49 0L152.49 0Q152.34-0.1 151.69-0.6 151.04-1.1 150.74-2.2L150.74-2.2Q150.64-2.6 150.56-3.23 150.49-3.85 150.49-4.4 150.49-4.95 150.56-5.35 150.64-5.75 150.79-5.75L150.79-5.75Q150.94-5.75 151.11-5.15 151.29-4.55 151.34-4.4L151.34-4.4Q151.49-3.7 151.61-3.18 151.74-2.65 151.89-2.2L151.89-2.2Q152.09-1.65 152.41-0.95 152.74-0.25 152.84-0.1ZM171.88-15.75L171.88-15.75Q171.03-14 169.88-12.23 168.73-10.45 167.48-9.05L167.48-9.05Q167.43-8.95 167.23-8.72 167.03-8.5 166.88-8.55L166.88-8.55Q166.78-8.65 166.83-8.9 166.88-9.15 166.93-9.3L166.93-9.3Q167.18-10.1 167.68-11.4 168.18-12.7 168.73-13.5L168.73-13.5Q168.88-13.75 169.36-14.9 169.83-16.05 170.28-17.48 170.73-18.9 170.98-20.25 171.23-21.6 170.93-22.25L170.93-22.25Q170.93-22.25 170.93-22.4L170.93-22.4 170.93-22.45Q171.13-22.45 171.23-22.25L171.23-22.25Q171.78-21.6 172.06-20.75 172.33-19.9 172.38-19 172.43-18.1 172.31-17.23 172.18-16.35 171.88-15.75ZM173.53-18.85L173.53-18.85Q174.08-17.8 173.86-16.32 173.63-14.85 173.06-13.3 172.48-11.75 171.76-10.38 171.03-9 170.58-8.15L170.58-8.15Q169.83-6.7 168.76-5.23 167.68-3.75 166.78-2.6L166.78-2.6Q166.53-2.25 166.33-2.25L166.33-2.25Q166.23-2.35 166.26-2.5 166.28-2.65 166.33-2.8L166.33-2.8Q167.13-5.4 168.33-7.63 169.53-9.85 170.83-12.25L170.83-12.25Q171.68-13.75 172.36-15.33 173.03-16.9 173.28-18.8L173.28-18.8Q173.28-19.05 173.33-19.05L173.33-19.05Q173.48-19.05 173.53-18.85ZM162.88-17.2L162.88-17.2Q162.88-15.35 162.61-13.2 162.33-11.05 162.03-9.5L162.03-9.5Q162.03-9.4 161.96-9.15 161.88-8.9 161.68-8.85L161.68-8.85Q161.58-8.85 161.51-9.1 161.43-9.35 161.38-9.45L161.38-9.45Q161.28-9.85 161.21-10.43 161.13-11 161.08-11.6 161.03-12.2 161.01-12.8 160.98-13.4 161.03-13.85L161.03-13.85Q161.08-14.15 160.98-15.35 160.88-16.55 160.68-17.95 160.48-19.35 160.13-20.63 159.78-21.9 159.28-22.4L159.28-22.4Q159.18-22.5 159.16-22.63 159.13-22.75 159.18-22.75L159.18-22.75Q159.28-22.75 159.41-22.7 159.53-22.65 159.63-22.6L159.63-22.6Q160.33-22.3 160.93-21.65 161.53-21 161.96-20.23 162.38-19.45 162.63-18.65 162.88-17.85 162.88-17.2ZM165.68 0L165.68 0Q165.68 0.2 165.58 0.2L165.58 0.2Q165.53 0.2 165.41 0.13 165.28 0.05 165.18 0L165.18 0Q164.78-0.3 164.61-0.85 164.43-1.4 164.53-2.5L164.53-2.5Q164.53-2.95 164.63-3.5 164.73-4.05 164.88-4.53 165.03-5 165.18-5.28 165.33-5.55 165.48-5.5L165.48-5.5Q165.73-5.4 165.71-4.88 165.68-4.35 165.68-4.1L165.68-4.1Q165.63-2.8 165.63-1.75 165.63-0.7 165.68 0ZM162.83-2.55L162.83-2.55Q162.58-2.85 162.38-3.35 162.18-3.85 162.03-4.33 161.88-4.8 161.86-5.15 161.83-5.5 161.98-5.55L161.98-5.55Q162.23-5.6 162.46-5.28 162.68-4.95 162.83-4.65L162.83-4.65Q162.78-5.7 162.96-6.78 163.13-7.85 163.23-8.75L163.23-8.75Q163.38-10.05 163.48-11.08 163.58-12.1 163.63-13.55L163.63-13.55Q163.73-15.1 163.63-16.95 163.53-18.8 162.83-20.55L162.83-20.55Q162.78-20.7 162.88-20.7L162.88-20.7Q162.98-20.7 163.03-20.65 163.08-20.6 163.18-20.55L163.18-20.55Q163.83-20.05 164.26-19.18 164.68-18.3 164.91-17.23 165.13-16.15 165.21-14.98 165.28-13.8 165.28-12.75L165.28-12.75Q166.03-14.1 166.83-15.43 167.63-16.75 168.23-18.07 168.83-19.4 169.18-20.68 169.53-21.95 169.48-23.2L169.48-23.2Q169.48-23.4 169.53-23.45L169.53-23.45Q169.58-23.45 169.73-23.2L169.73-23.2Q170.43-21.55 170.18-19.88 169.93-18.2 169.16-16.53 168.38-14.85 167.33-13.18 166.28-11.5 165.48-9.85L165.48-9.85Q164.48-7.75 164.06-5.25 163.63-2.75 164.33 0L164.33 0 164.33 0.05Q164.28 0.1 164.28 0.1L164.28 0.1Q164.18 0.1 164.13 0.05L164.13 0.05Q164.08 0.05 164.08 0L164.08 0Q163.93-0.2 163.73-0.4 163.53-0.6 163.18-0.8L163.18-0.8Q161.73-1.55 160.78-2.55 159.83-3.55 159.31-4.7 158.78-5.85 158.56-7.1 158.33-8.35 158.33-9.6L158.33-9.6Q158.28-11.4 158.41-13.23 158.53-15.05 158.56-16.75 158.58-18.45 158.38-20.03 158.18-21.6 157.53-22.9L157.53-22.9Q157.53-23 157.53-23L157.53-23Q157.63-23.1 157.73-23.05 157.83-23 157.88-22.95L157.88-22.95Q159.18-21.75 159.63-20.15 160.08-18.55 160.13-16.75 160.18-14.95 159.98-13.05 159.78-11.15 159.83-9.3L159.83-9.3Q159.88-8.2 160.08-7.05 160.28-5.9 160.73-4.83 161.18-3.75 161.91-2.75 162.63-1.75 163.63-0.95L163.63-0.95Q163.43-1.45 163.33-1.68 163.23-1.9 162.83-2.55ZM188.83-20.4L188.83-20.4Q189.23-19.9 189.46-19.15 189.68-18.4 189.63-17.53 189.58-16.65 189.23-15.7 188.88-14.75 188.13-13.85L188.13-13.85Q186.68-12.15 184.96-11.23 183.23-10.3 181.83-10.3L181.83-10.3Q180.98-10.3 181.83-10.6L181.83-10.6Q182.28-10.75 182.91-11.08 183.53-11.4 184.23-11.88 184.93-12.35 185.66-13 186.38-13.65 186.98-14.5L186.98-14.5Q187.98-15.9 188.16-17.23 188.33-18.55 187.63-19.25L187.63-19.25Q187.03-19.85 186.23-19.93 185.43-20 183.83-19.05L183.83-19.05Q182.38-18.2 181.23-16.95 180.08-15.7 179.08-14.3L179.08-14.3Q178.53-13.6 178.36-13.6 178.18-13.6 178.48-14.5L178.48-14.5Q179.08-16.25 180.16-17.75 181.23-19.25 182.73-20.3L182.73-20.3Q183.83-21.05 184.76-21.35 185.68-21.65 186.46-21.6 187.23-21.55 187.83-21.23 188.43-20.9 188.83-20.4ZM191.53-16.9L191.53-16.9Q191.33-15.7 190.91-14.88 190.48-14.05 189.96-13.48 189.43-12.9 188.91-12.55 188.38-12.2 187.98-11.9L187.98-11.9Q187.78-11.75 187.68-11.85 187.58-11.95 187.83-12.2L187.83-12.2Q188.73-12.95 189.66-14.23 190.58-15.5 190.63-17.05L190.63-17.05Q190.63-19.7 189.33-21.1L189.33-21.1Q188.03-22.5 186.08-22.33 184.13-22.15 182.03-20.8L182.03-20.8Q180.68-19.95 179.66-18.82 178.63-17.7 177.88-16.43 177.13-15.15 176.66-13.8 176.18-12.45 175.98-11.1L175.98-11.1Q175.78-9.8 175.61-8.3 175.43-6.8 175.61-5.35 175.78-3.9 176.53-2.58 177.28-1.25 178.88-0.3L178.88-0.3Q179.13-0.15 179.41-0.1 179.68-0.05 179.68 0L179.68 0Q179.68 0.1 179.43 0.13 179.18 0.15 178.88 0.05L178.88 0.05Q177.63-0.2 176.76-0.98 175.88-1.75 175.33-2.75 174.78-3.75 174.48-4.85 174.18-5.95 174.13-6.85L174.13-6.85Q173.83-10.8 175.23-14.65L175.23-14.65Q175.53-15.45 176.01-16.45 176.48-17.45 177.18-18.48 177.88-19.5 178.83-20.48 179.78-21.45 180.98-22.2L180.98-22.2Q182.13-22.9 183.38-23.25 184.63-23.6 185.88-23.58 187.13-23.55 188.23-23.13 189.33-22.7 190.18-21.85L190.18-21.85Q190.93-21.05 191.36-19.8 191.78-18.55 191.53-16.9ZM186.98-18.7L186.98-18.7Q187.58-18 187.13-16.53 186.68-15.05 185.03-13.55L185.03-13.55Q184.13-12.7 183.28-12.18 182.43-11.65 181.13-11.25L181.13-11.25Q180.58-9.35 180.43-7.5 180.28-5.65 180.53-4.5L180.53-4.5Q180.58-4.05 180.86-3.63 181.13-3.2 181.66-2.98 182.18-2.75 183.03-2.8 183.88-2.85 185.13-3.35L185.13-3.35Q185.48-3.5 185.56-3.43 185.63-3.35 185.23-3.1L185.23-3.1Q184.33-2.4 183.33-2.13 182.33-1.85 181.46-1.95 180.58-2.05 179.96-2.55 179.33-3.05 179.13-3.9L179.13-3.9Q178.73-5.65 178.78-7.55 178.83-9.45 179.36-11.3 179.88-13.15 180.86-14.78 181.83-16.4 183.28-17.55L183.28-17.55Q185.98-19.7 186.98-18.7ZM186.48-2.75L186.48-2.75Q186.13-2.25 185.61-1.78 185.08-1.3 184.41-0.93 183.73-0.55 183.01-0.3 182.28-0.05 181.53-0.05L181.53-0.05Q180.23-0.05 179.11-0.63 177.98-1.2 177.38-2.95L177.38-2.95Q177.28-3.15 177.28-3.33 177.28-3.5 177.38-3.5L177.38-3.5Q177.58-3.6 177.78-3.38 177.98-3.15 178.18-2.9L178.18-2.9Q178.73-2.25 179.61-1.75 180.48-1.25 181.28-1.25L181.28-1.25Q182.78-1.25 183.88-1.7 184.98-2.15 185.98-2.9L185.98-2.9Q186.23-3.05 186.56-3.2 186.88-3.35 186.48-2.75ZM185.78-17.35L185.78-17.35Q185.58-17.75 184.33-16.7L184.33-16.7Q183.18-15.8 182.51-14.63 181.83-13.45 181.33-12.05L181.33-12.05Q182.28-12.5 183.08-13.08 183.88-13.65 184.58-14.2L184.58-14.2Q185.33-14.85 185.68-15.9 186.03-16.95 185.78-17.35Z" fill="#ffffff" data-fill-palette-color="primary"></path></g></svg></g></svg></g></svg></g></svg></g><g transform="matrix(1,0,0,1,120.3872700291389,0)"><svg viewBox="0 0 154.74545994172223 154.74545994172223" height="154.74545994172223" width="154.74545994172223"><g><svg xmlns="http://www.w3.org/2000/svg" xmlns:xlink="http://www.w3.org/1999/xlink" version="1.1" x="0" y="0" viewBox="1 1 62 62" style="enable-background:new 0 0 64 64;" xml:space="preserve" height="154.74545994172223" width="154.74545994172223" class="icon-icon-0" data-fill-palette-color="accent" id="icon-0"><g fill="#00d1cd" data-fill-palette-color="accent"><path d="M34 23A3 3 0 0 0 31.184 25H27V27H31.184C31.598 28.161 32.698 29 34 29S36.402 28.161 36.816 27H59V25H36.816A3 3 0 0 0 34 23M34 27A1.001 1.001 0 0 1 34 25 1.001 1.001 0 0 1 34 27" fill="#00d1cd" data-fill-palette-color="accent"></path><path d="M37 4.382V17.618L50.236 11zM39 7.618L45.764 11 39 14.382z" fill="#00d1cd" data-fill-palette-color="accent"></path><path d="M4 55H18C19.654 55 21 53.654 21 52V50.949C30.677 50.442 38.442 42.677 38.949 33H58C60.757 33 63 30.757 63 28V6C63 3.243 60.757 1 58 1H28C25.243 1 23 3.243 23 6V13.24A19 19 0 0 0 20 13C9.523 13 1 21.523 1 32 1 42.139 8.989 50.424 19 50.949V52A1 1 0 0 1 18 53H4C2.346 53 1 54.346 1 56S2.346 59 4 59H30C31.654 59 33 57.654 33 56A1 1 0 0 1 34 55H39V56C39 59.859 42.141 63 46 63H54C58.963 63 63 58.963 63 54S58.963 45 54 45H46C42.141 45 39 48.141 39 52V53H34C32.346 53 31 54.346 31 56A1 1 0 0 1 30 57H4A1 1 0 0 1 4 55M14.374 42H25.625C24.264 46.388 22.087 49 19.999 49S15.735 46.388 14.374 42M3.051 33H11.024C11.083 35.504 11.359 37.862 11.818 40H5.008A16.9 16.9 0 0 1 3.051 33M24.026 31H13.022C13.084 28.412 13.378 26.058 13.845 24H23V28C23 29.13 23.391 30.162 24.026 31M11.023 31H3.051A16.9 16.9 0 0 1 5.009 24H11.818C11.358 26.138 11.082 28.496 11.023 31M13.022 33H26.978C26.916 35.588 26.622 37.942 26.155 40H13.846C13.379 37.942 13.084 35.588 13.022 33M24.638 48.341C25.886 46.784 26.928 44.611 27.681 42H33.718A17.04 17.04 0 0 1 24.638 48.341M34.992 40H28.183C28.642 37.862 28.918 35.504 28.977 33H36.95A16.9 16.9 0 0 1 34.992 40M58 31H28C26.346 31 25 29.654 25 28V21H61V28C61 29.654 59.654 31 58 31M28 3H58C59.654 3 61 4.346 61 6V19H25V6C25 4.346 26.346 3 28 3M23 15.29V22H14.374C15.735 17.612 17.912 15 20 15 21.01 15 22.012 15.114 23 15.29M15.362 15.659C14.114 17.216 13.072 19.389 12.319 22H6.283A17.03 17.03 0 0 1 15.362 15.659M6.283 42H12.32C13.073 44.611 14.115 46.783 15.363 48.341A17.03 17.03 0 0 1 6.283 42M44 53A1 1 0 0 1 44 55H41V53zM51 61V60.949C51 60.244 53.278 58.949 57 58.949 57.62 58.949 58.232 58.988 58.821 59.062A6.97 6.97 0 0 1 54 61zM60.187 57.265C57.155 56.659 53.303 56.991 51 58.235V49.732C52.541 50.57 54.778 51 57 51 58.093 51 59.17 50.891 60.165 50.689 60.697 51.676 61 52.803 61 54A6.95 6.95 0 0 1 60.187 57.265M58.773 48.894C58.199 48.964 57.603 49 57 49 53.278 49 51 47.705 51 47H54C55.845 47 57.521 47.723 58.773 48.894M46 47H49V61H46A5.01 5.01 0 0 1 41.101 57H44C45.654 57 47 55.654 47 54S45.654 51 44 51H41.101A5.01 5.01 0 0 1 46 47" fill="#00d1cd" data-fill-palette-color="accent"></path><rect x="27" y="15" width="2" height="2" fill="#00d1cd" data-fill-palette-color="accent"></rect><path d="M29 7H31V5H29C27.897 5 27 5.897 27 7V13H29z" fill="#00d1cd" data-fill-palette-color="accent"></path><rect x="57" y="11" width="2" height="2" fill="#00d1cd" data-fill-palette-color="accent"></rect><rect x="57" y="15" width="2" height="2" fill="#00d1cd" data-fill-palette-color="accent"></rect><rect x="57" y="7" width="2" height="2" fill="#00d1cd" data-fill-palette-color="accent"></rect></g></svg></g></svg></g><g></g></svg></g><defs></defs></svg><rect width="333.5222353283262" height="247.2" fill="none" stroke="none" visibility="hidden"></rect></g></svg></g></svg>